<?xml version="1.0" encoding="UTF-8"?>
<svg width="24" height="24" viewBox="0 0 24 24" xmlns="http://www.w3.org/2000/svg">
  <defs>
    <style>
      .revenium {
        fill: currentColor;
        stroke-width: 0;
      }
    </style>
  </defs>
  <!-- Simplified Revenium logo for VSCode activity bar - 24x24 single color -->
  <g>
    <!-- Simplified "R" based on the original Revenium logo -->
    <path class="revenium" d="M4 3h8c2.5 0 4.5 1.5 4.5 4s-2 4-4.5 4h-2l3.5 6h-3l-3-6H7v6H4V3zm3 3v4h5c1 0 1.5-.5 1.5-1.5S13 7 12 7H7z"/>
    <!-- Small "m" for the second part of "Rm" if space allows -->
    <path class="revenium" d="M18 14v5h-1.5v-4c0-.5-.3-1-.8-1s-.7.5-.7 1v4H14v-5h1.3v.5c.3-.4.7-.5 1.2-.5s1 .2 1.3.6c.3-.4.8-.6 1.2-.6 1 0 1.5.6 1.5 1.5v4H19v-4c0-.5-.2-1-.5-1z"/>
  </g>
</svg>