<?xml version="1.0" encoding="UTF-8"?>
<svg xmlns="http://www.w3.org/2000/svg" xmlns:xlink="http://www.w3.org/1999/xlink" width="24px" height="24px" viewBox="0 0 24 23" version="1.1">
<g id="surface1">
<path style=" stroke:none;fill-rule:nonzero;fill:rgb(100%,100%,100%);fill-opacity:1;" d="M 23.277344 23 L 0.722656 23 C 0.324219 23 0 22.691406 0 22.308594 L 0 0.691406 C 0 0.308594 0.324219 0 0.722656 0 L 23.277344 0 C 23.675781 0 24 0.308594 24 0.691406 L 24 22.308594 C 24 22.691406 23.675781 23 23.277344 23 Z M 22.292969 13.964844 L 22.292969 2.644531 C 22.292969 2.085938 21.820312 1.636719 21.242188 1.636719 L 2.757812 1.636719 C 2.179688 1.636719 1.707031 2.085938 1.707031 2.644531 L 1.707031 20.355469 C 1.707031 20.914062 2.179688 21.363281 2.757812 21.363281 L 14.574219 21.363281 C 21.980469 21.363281 22.292969 14.777344 22.292969 13.964844 Z M 22.292969 13.964844 "/>
<path style=" stroke:none;fill-rule:nonzero;fill:rgb(100%,100%,100%);fill-opacity:1;" d="M 5.449219 15.339844 L 5.449219 8.125 L 8.085938 8.125 C 8.839844 8.125 9.425781 8.308594 9.84375 8.671875 C 10.265625 9.035156 10.476562 9.550781 10.476562 10.21875 C 10.476562 10.691406 10.347656 11.097656 10.097656 11.429688 C 9.847656 11.761719 9.496094 12 9.050781 12.136719 C 8.941406 12.164062 8.925781 12.226562 8.996094 12.332031 L 9.335938 12.835938 L 10.3125 15.339844 L 9.03125 15.339844 L 7.835938 12.257812 L 6.675781 12.257812 L 6.675781 15.339844 Z M 6.664062 11.28125 L 8.109375 11.28125 C 8.488281 11.28125 8.785156 11.1875 9 11 C 9.214844 10.816406 9.320312 10.554688 9.320312 10.21875 C 9.320312 9.859375 9.214844 9.585938 9 9.386719 C 8.785156 9.191406 8.488281 9.09375 8.109375 9.09375 L 6.664062 9.09375 Z M 6.664062 11.28125 "/>
<path style=" stroke:none;fill-rule:nonzero;fill:rgb(100%,100%,100%);fill-opacity:1;" d="M 18.695312 13.746094 L 18.695312 11.671875 C 18.695312 11.328125 18.621094 11.03125 18.46875 10.785156 C 18.3125 10.539062 18.09375 10.347656 17.808594 10.21875 C 17.527344 10.085938 17.191406 10.023438 16.800781 10.023438 C 16.597656 10.023438 16.394531 10.042969 16.195312 10.085938 C 15.996094 10.125 15.808594 10.1875 15.636719 10.269531 C 15.464844 10.351562 15.316406 10.453125 15.191406 10.570312 C 15.003906 10.390625 14.792969 10.253906 14.5625 10.164062 C 14.332031 10.070312 14.058594 10.023438 13.738281 10.023438 C 13.414062 10.023438 13.128906 10.082031 12.875 10.191406 C 12.625 10.304688 12.4375 10.421875 12.3125 10.546875 L 12.3125 10.144531 L 11.164062 10.144531 L 11.164062 15.339844 L 12.347656 15.339844 L 12.347656 11.859375 C 12.347656 11.589844 12.425781 11.382812 12.585938 11.238281 C 12.75 11.09375 13.019531 11.023438 13.398438 11.023438 C 13.703125 11.023438 13.9375 11.09375 14.097656 11.238281 C 14.257812 11.382812 14.339844 11.589844 14.339844 11.859375 L 14.339844 15.339844 L 15.519531 15.339844 L 15.519531 11.859375 C 15.519531 11.589844 15.59375 11.382812 15.746094 11.238281 C 15.894531 11.09375 16.144531 11.023438 16.496094 11.023438 C 16.847656 11.023438 17.121094 11.09375 17.277344 11.238281 C 17.433594 11.382812 17.515625 11.589844 17.515625 11.859375 L 17.515625 14.988281 C 18.34375 14.695312 18.613281 14.121094 18.695312 13.75 Z M 18.695312 13.746094 "/>
</g>
</svg>
