<?xml version="1.0" encoding="UTF-8"?>
<svg id="Layer_2" data-name="Layer 2" xmlns="http://www.w3.org/2000/svg" viewBox="0 0 188.17 188.17">
  <defs>
    <style>
      .cls-1 {
        fill: #fff;
        stroke-width: 0px;
      }
    </style>
  </defs>
  <g id="white_logo" data-name="white logo">
    <g>
      <path class="cls-1" d="M182.5,188.17H5.67c-3.13,0-5.67-2.54-5.67-5.67V5.67C0,2.54,2.54,0,5.67,0h176.83c3.13,0,5.67,2.54,5.67,5.67v176.83c0,3.13-2.54,5.67-5.67,5.67ZM174.78,114.26h0V21.63c0-4.55-3.69-8.24-8.24-8.24H21.63c-4.55,0-8.24,3.69-8.24,8.24v144.91c0,4.55,3.69,8.24,8.24,8.24h92.63c58.07,0,60.52-53.88,60.52-60.52Z"/>
      <g>
        <path class="cls-1" d="M42.72,125.49v-59.01h20.69c5.89,0,10.48,1.49,13.78,4.47,3.29,2.98,4.94,7.19,4.94,12.65,0,3.88-.99,7.18-2.96,9.91-1.97,2.73-4.71,4.65-8.2,5.77-.86.23-1,.76-.43,1.6l2.66,4.13,7.64,20.49h-10.04l-9.36-25.21h-9.1v25.21h-9.61ZM52.24,92.28h11.33c2.97,0,5.31-.76,6.99-2.28,1.69-1.52,2.53-3.65,2.53-6.41,0-2.92-.85-5.18-2.53-6.79-1.69-1.6-4.02-2.4-6.99-2.4h-11.33v17.87Z"/>
        <path class="cls-1" d="M146.59,112.47v-16.98c0-2.81-.6-5.23-1.8-7.25-1.2-2.03-2.92-3.57-5.15-4.64-2.23-1.07-4.86-1.6-7.9-1.6-1.6,0-3.19.17-4.76.51-1.57.33-3.03.84-4.38,1.52-1.35.67-2.51,1.49-3.48,2.44-1.49-1.46-3.13-2.57-4.94-3.33-1.8-.76-3.96-1.14-6.48-1.14s-4.76.47-6.74,1.39c-1.97.93-3.45,1.89-4.42,2.91v-3.29h-9.01v42.49h9.27v-28.49c0-2.19.63-3.88,1.89-5.06s3.38-1.77,6.35-1.77c2.4,0,4.23.59,5.49,1.77s1.89,2.87,1.89,5.06v28.49h9.27v-28.49c0-2.19.58-3.88,1.76-5.06s3.13-1.77,5.88-1.77,4.91.59,6.14,1.77c1.23,1.18,1.85,2.87,1.85,5.06v25.6c6.5-2.39,8.61-7.08,9.27-10.13Z"/>
      </g>
    </g>
  </g>
</svg>